<?xml version="1.0" encoding="UTF-8"?>
<svg id="Layer_1" data-name="Layer 1" xmlns="http://www.w3.org/2000/svg" viewBox="0 0 493 478.93">
  <defs>
    <style>
      .cls-1 {
        fill: #faf3e0;
      }
    </style>
  </defs>
  <path class="cls-1" d="M483.6,243.22c0,127.04-106.55,230.02-237.98,230.02S7.64,370.26,7.64,243.22,93.72,8.22,225.16,8.22s258.44,107.96,258.44,235Z"/>
  <g>
    <path d="M484.56,304.15c23.05-78.74-5.54-178.74-66.5-232.61-38.04-33.62-81.4-47.07-127.3-61.32C221.87-11.16,143.25,1.74,90.96,42.09c3.01-3.02,5.31-6.56,6.2-11.08l.2-1.03-.74-.75c-1.49-1.52-4.01-2.13-18.22,6.86-3.28,2.07-6.62,4.32-9.46,6.3,3.25-3.66,3.25-5.44,2.61-6.76-1.28-2.61-5.27-1.83-6.77-1.53-13.24,2.59-34.38,22.58-40.13,33.28l-.29.54c-1.18,2.14-2.79,5.08-1.92,7.84.3.96,1.04,2.29,2.89,3.21.49.25,1,.36,1.53.36,3.35,0,7.56-4.6,12.93-10.89,1.03-1.2,1.91-2.24,2.46-2.8,4.21-4.27,8.05-7.39,12.05-10.55-10.05,10.7-24.15,27.84-26.34,35.11-.71,2.35-.95,4.83-.74,7.56l.12,1.52,1.5.29c.54.11,1.06.15,1.56.15,3.63,0,5.99-2.63,7.94-4.8.29-.32.57-.63.86-.94,4.51-4.82,8.44-10.16,12.23-15.33,5.32-7.23,10.81-14.71,18.09-21.05,2.78-2.42,6.07-4.51,9.56-6.72,1.84-1.17,3.69-2.35,5.48-3.58-.9.76-1.81,1.52-2.69,2.3-29.68,26.41-51.83,58.57-65.83,95.56C2.85,180-2.35,218.21.98,255.69c6.94,77.97,48.58,145.76,114.25,186,40.29,24.69,90.24,37.24,139.26,37.24,41.36,0,82.04-8.94,115.64-27.08,22.93-12.38,47.67-35.11,69.67-64.01,20.93-27.5,37.24-58,44.76-83.69ZM178.1,20.69C117.49,38.74,51.35,119.5,37.01,174.33c-1.06,4.06-.63,6.85-.34,8.69.08.48.17,1.08.15,1.25-.1.37-.95,1.31-1.46,1.87-.81.9-1.65,1.83-2.16,2.87-11.33,23.27-5.37,78.26,1.15,102.51,10.87,40.4,51.94,105.08,84.52,133.07,5.89,5.06,13.04,9.82,20.47,14.13-63.54-32.38-110.55-94.58-121.85-165.27-10.63-66.51,7.98-136.49,49.78-187.19,31.04-37.65,72.63-61.28,118.7-67.86l-7.88,2.28ZM52.72,257.77c2.33,0,4.62-.33,6.76-.65,1.84-.27,3.58-.52,5.23-.57,1.18-.03,2.92,0,4.92.05,10.64.23,19.7.16,22.98-3.04,1.19-1.16,1.81-2.92,1.7-4.83-.11-1.96-.97-3.76-2.3-4.8-3.59-2.81-26.82-2.42-29.37-2.19-5.06.45-12.71,1.12-16.39,5.62-.85,1.03-1.42,2.2-1.74,3.49-.15-1.62-.27-3.23-.36-4.82-.55-10.08.48-19.79,1.48-29.19.75-7.1,1.53-14.45,1.59-21.77.01-1.58-.49-3.4-.98-5.16-.31-1.1-.81-2.92-.76-3.45.14-.15.49-.42.73-.61.77-.6,1.72-1.36,2.24-2.48,1.08-2.37,1.94-5.22,2.76-7.97.79-2.64,1.61-5.38,2.63-7.66,16.89-38.13,57.81-93.26,94.47-115.83,76.68-47.22,195.57-30.36,265.03,37.59,49.33,48.26,71.76,127.57,58.54,206.98-3.48,20.89-18.86,49.89-42.2,79.54-21.92,27.86-47.52,51.6-66.8,61.97-28.94,15.57-59.17,23.34-90.54,23.34-40.2,0-82.27-12.78-125.82-38.31-45.74-26.81-93.57-106.69-101.42-166.86l.35.16c2.41,1.09,4.86,1.45,7.26,1.45Z"/>
    <path d="M492.01,362.89c-1.32-1.65-3.59-2.01-6.75-1.05-1.97.6-4.16,3.9-9.72,13.52-1.32,2.29-2.57,4.45-3.22,5.38-3.62,5.15-7.75,9.87-11.75,14.43-.73.83-1.46,1.67-2.19,2.51,10.29-13.69,19.53-29.54,24.14-42.43.83-2.32,4.74-14-.04-16.29-2.75-1.31-5.85,1.17-10.07,8.06-4.07,6.65-7.37,13.38-10.56,19.9-5.53,11.28-10.75,21.94-19.71,32.38-1.71,2-3.73,3.86-5.86,5.83-5.98,5.53-12.17,11.25-12.12,20.46v.74s.49.56.49.56c.33.38.71.82,1.55.82,1.46,0,4.29-1.33,10.7-6.62,4.1-3.38,8.44-7.72,12.76-12.65-.95,1.31-1.88,2.64-2.76,4.02l-.19.3-.08.34c-.44,1.98.43,3.05.98,3.52.65.54,1.48.82,2.55.82,1.45,0,3.33-.51,5.76-1.53,9.78-4.12,25.46-24.65,30.77-34.04l.24-.42c5.81-10.2,7.32-15.75,5.08-18.56Z"/>
    <path d="M237.98,123.38l.75.19,5.52-2.88,2.98-2.66.9,67.14.02.22c1.3,10.4,1.32,21.44,1.35,32.12.02,8.5.04,17.3.7,25.72.45,5.72,1.39,11.24,5.2,12.89.68.29,1.4.44,2.15.44,1.97,0,4.2-1.01,6.74-3.06l.21-.17,56.25-78.34c.64,1.19,1.57,2.17,2.62,2.81,2.66,1.64,5.8,1.23,8.01-1.05,2.31-2.39,5.18-17.53,2.59-24.6-1.27-3.48-3.49-4.41-5.14-4.57l-.48-.05-22.58,8.83-.35.52c-1.17,1.73-1.57,3.42-1.19,5,.57,2.37,2.77,3.88,4.6,4.93l-45.78,65.62-2.77-118.21c.25.27.5.54.73.79,2.62,2.85,5.89,6.41,9.4,6.46,1.45,0,2.84-.57,3.96-1.72,1.26-1.29,1.79-3,1.53-4.93-.87-6.5-11.06-15.15-14.78-17.34-5.93-3.49-8.7-4.29-14.31,1.22-2.28,2.24-9.9,12.07-11.73,14.86-1.69,2.58-2.17,4.7-1.48,6.49.62,1.61,2.1,2.72,4.41,3.33Z"/>
    <path d="M126.78,132.83c4.6,3.36,9.36,6.83,12.68,10.05l.12.11c1.28,1.05,3.05,1.57,4.81,1.57,1.87,0,3.73-.6,4.95-1.77,1-.97,1.31-2.32,1.55-3.38l.05-.41c.08-4.66-17.2-21.21-17.38-21.37-.14-.13-15.63-13.49-18.85-13.78-2.08-.18-3.7.89-4.74,1.71l-.18.14-.14.18c-3.27,4.14-2.31,9.78,2.59,15.07,3.6,3.89,9.16,7.95,14.54,11.87Z"/>
    <path d="M379.89,342.31l-.12-.11c-2.65-2.18-7.39-2.08-9.75.2-1,.97-1.31,2.32-1.55,3.38l-.05.41c-.08,4.66,17.2,21.21,17.38,21.37.15.13,15.62,13.49,18.85,13.78.16.01.32.02.48.02,1.85,0,3.3-.97,4.26-1.73l.18-.14.14-.18c3.27-4.14,2.31-9.77-2.59-15.07-3.6-3.89-9.16-7.95-14.54-11.87-4.6-3.36-9.36-6.83-12.68-10.05Z"/>
    <path d="M251.34,80.27c.8.63,2.03,1.43,3.74,1.43.23,0,.47-.01.72-.05,1.67-.15,3.09-.92,4.11-2.23,3.09-3.95,2.15-12.03.82-20.66-.31-2-.58-3.73-.6-4.65-.05-1.78.18-3.6.4-5.36.45-3.61.91-7.35-.81-11.17-1.16-2.58-3.32-4.43-5.62-4.85-1.85-.33-3.67.29-5.11,1.75-4.02,4.07-2.93,21.77-2.8,23.77.01.19,1.95,19.51,5.15,22.03Z"/>
    <path d="M434.46,243.1c1.45-.22,2.82-.43,4.04-.4,1.17.03,2.5.4,3.9.79,1.74.49,3.71,1.03,5.81,1.03.11,0,.22,0,.34,0,.18,0,17.66-1,18.62-7.14.41-2.62-.12-4.71-1.57-6.21-3.06-3.16-9.23-2.38-13.74-1.81-1.27.16-2.47.31-3.23.32-2.04.02-3.89-.17-5.85-.38-2.41-.25-4.91-.52-7.93-.4-9.12.36-13.98,1.96-15.29,5.05-.54,1.27-.69,3.33,1.64,5.93,4.11,4.6,9.17,3.83,13.24,3.22Z"/>
    <path d="M361.58,127.83l.81.42c1.69.87,3.3,1.25,4.83,1.25,6.25,0,11.21-6.28,15.03-11.12,1.01-1.28,1.96-2.49,2.84-3.46.32-.35,1-.99,1.79-1.73,5.01-4.68,9.88-9.62,9.63-13.94-.09-1.54-.83-2.86-2.13-3.82-4.99-3.68-15.85,5.59-17.07,6.66-2.2,1.93-14.28,14.9-15.46,17.81-.9,2.22-1.07,4.66-.49,7.05l.22.89Z"/>
    <path d="M262.97,428c-.48-5.08-1.2-12.75-5.25-15.48-1.08-.73-2.89-1.43-5.41-.68-6.11,1.82-4.26,12.83-2.78,21.67.33,1.96.61,3.65.69,4.67.09,1.17-.03,3.02-.15,4.97-.36,5.74-.74,11.68,2.27,14.08,1.4,1.12,2.73,1.45,3.82,1.45.47,0,.89-.06,1.25-.15,1.98-.47,3.73-2.07,4.8-4.39,1.99-4.31,2.29-12.26.93-24.28-.06-.54-.12-1.17-.19-1.86Z"/>
    <path d="M140.44,344.39l-.46-.33-4.92-.38-.66.75c-1.69,1.93-6.23,4.51-10.62,7.01-7.28,4.15-14.16,8.06-15.37,12.31-.52,1.84-.12,3.86,1.09,5.53,1.25,1.73,3.16,2.82,5.09,2.9.02,0,.04,0,.07,0,4.15,0,25.33-15.51,26.83-18.78.96-2.09,1.66-7.04-1.05-9Z"/>
    <path d="M178.88,354.47c.62.18,1.22.27,1.8.27,1.69,0,3.14-.77,4.06-2.21h0c1.59-2.49.33-6.24-1.24-8.69-1.94-3.02-4.56-4.62-7.03-4.28l-.27.06c-4.4,1.25-4.89,4.33-4.9,5.59-.02,4.01,3.98,8.2,7.58,9.26Z"/>
  </g>
</svg>