<?xml version="1.0" encoding="UTF-8"?>
<svg id="Layer_1" data-name="Layer 1" xmlns="http://www.w3.org/2000/svg" width="169.42" height="55.73" viewBox="0 0 169.42 55.73">
  <defs>
    <style>
      .cls-1 {
        fill: #211615;
        stroke-width: 0px;
      }
    </style>
  </defs>
  <path class="cls-1" d="M90.19,17.94c3.61,1.63,4.84,14.19,11.29,24.83,6.45,10.64,11.61,13.43,34.02,12.9,23.15-.56,27.08-28.86,28.21-31.6.75-1.82,3.06-4.35,4.53-5.85,1.6-1.62,1.2-2.79.92-9.49-.08-1.9-1.44-3.5-3.29-3.89-25.82-5.5-43.02-7.09-66.49-.59-6.42,1.78-9.16,1.87-14.67,1.83-5.51.04-8.25-.05-14.67-1.83C46.33-2.32,29.03-.59,3.55,4.83c-1.86.4-3.21,2-3.29,3.9-.28,6.59-.68,7.86.92,9.49,1.47,1.5,3.78,4.03,4.53,5.85,1.13,2.74,5.06,31.04,28.21,31.6,22.41.54,27.57-2.26,34.02-12.9,6.45-10.64,7.67-23.19,11.29-24.83,2.32-1.05,8.64-1.05,10.96,0ZM156.29,27.4c-2.26,15.69-9.35,21.39-13.43,23-4.08,1.61-21.6,3.98-31.06-3.22-9.46-7.2-12.47-22.14-12.57-30.42-.11-8.28,12.47-10.32,12.47-10.32,14.4-2.9,28.91-1.93,35.47.22,6.56,2.15,11.39,5.05,9.14,20.74ZM22.27,6.66c6.56-2.15,21.07-3.12,35.47-.21,0,0,12.57,2.04,12.47,10.32-.11,8.28-3.12,23.22-12.58,30.42-9.46,7.2-26.98,4.84-31.06,3.22-4.08-1.61-11.18-7.31-13.43-23s2.58-18.59,9.14-20.74Z"/>
</svg>