<?xml version="1.0" encoding="UTF-8"?>
<svg id="Layer_1" data-name="Layer 1" xmlns="http://www.w3.org/2000/svg" viewBox="0 0 537.91 589.24">
  <defs>
    <style>
      .cls-1 {
        fill: #fff;
        stroke-width: 0px;
      }
    </style>
  </defs>
  <path class="cls-1" d="M122.5,153.62c-6.84-5.29-13.06-9.45-18.53-14.44-40.25-36.64-33.22-96.72,6.63-125.78,23.11-16.86,58.51-20.2,88.01,4.04,21.43,17.61,36.42,40.13,49.13,64.28,6.89,13.09,12.66,26.77,18.93,40.19.68,1.45,1.37,2.89,2.46,5.2,3.58-8.29,6.65-15.76,9.99-23.1,11.78-25.86,25.17-50.76,44.35-72.04,12.58-13.95,26.93-25.65,45.7-29.89,30.82-6.96,66.66,4.44,83.72,41.52,17.95,39.03,5.47,81.24-30.76,105.05-1.88,1.24-3.76,2.47-5.36,4.73,1.73.08,3.45.23,5.18.23,25.33.02,50.66-.12,75.99.06,20.53.15,36.13,13.19,39.38,32.77.67,4.07.48,8.3.49,12.46.05,14.83.2,29.67-.04,44.49-.25,15.3-7.34,26.84-20.82,33.95-3.75,1.98-4.79,4.06-4.79,8,.09,87.16,0,174.32.14,261.47.02,13.86-4.13,25.49-15.19,34.25-7.98,6.32-17.26,8.16-27.19,8.15-49.66-.06-99.32-.03-148.98-.03-84.16,0-168.32-.05-252.48.06-12.98.02-24.33-3.32-33.16-13.29-7.1-8.02-9.73-17.53-9.72-28.11.07-76.49.04-152.99.04-229.48,0-11.33-.09-22.67.06-34,.04-3.17-.77-4.99-3.85-6.57C7.55,270.43.13,258.57.05,242.39c-.08-16.16-.06-32.33,0-48.5.07-23.4,16.41-40.04,39.88-40.23,25.5-.2,50.99-.05,76.49-.05,1.65,0,3.31,0,6.08,0ZM204.7,282.27c-1.87-.15-3.17-.35-4.48-.35-47.99-.02-95.98.05-143.97-.12-4.82-.02-4.85,2.31-4.84,5.83.05,86.65.03,173.29.05,259.94,0,11.16,4.68,15.82,15.8,15.82,43.99.01,87.98,0,131.97,0,1.77,0,3.53-.16,5.46-.26v-280.86ZM333.29,563.41h5.66c43.82,0,87.65,0,131.47,0,11.41,0,15.99-4.61,15.99-16.14.01-86.48-.03-172.96.11-259.44,0-4.93-1.54-6.03-6.22-6.02-46.99.16-93.98.1-140.97.11-1.95,0-3.9.17-6.04.26v281.23ZM307.28,422.57c0-44.8-.09-89.61.12-134.41.02-5.15-1.49-6.43-6.49-6.37-21.65.26-43.3.2-64.95.04-4.07-.03-5.46,1.11-5.45,5.33.1,90.44.1,180.88,0,271.31,0,4.03,1.34,5.05,5.19,5.02,21.65-.16,43.3-.08,64.95-.08q6.61,0,6.62-6.43c0-44.8,0-89.61,0-134.41ZM113.45,255.98c24.32,0,48.63-.09,72.95.09,4.25.03,5.77-.95,5.72-5.5-.23-21.81-.22-43.63,0-65.45.04-4.33-1.05-5.64-5.54-5.62-48.46.17-96.93.1-145.39.11-10.63,0-15.26,4.54-15.29,15.12-.05,15.16-.04,30.31,0,45.47.02,11.43,4.31,15.77,15.63,15.78,23.98.02,47.96,0,71.95,0ZM425.44,179.6c-24.65,0-49.3.09-73.94-.09-4.18-.03-5.8.78-5.75,5.41.25,21.98.19,43.96.04,65.95-.03,3.8.9,5.2,4.99,5.19,48.96-.13,97.92-.06,146.88-.11,9.43,0,14.24-4.71,14.3-14.07.12-15.99.11-31.97,0-47.96-.06-9.58-4.96-14.3-14.59-14.31-23.98-.02-47.96,0-71.94,0ZM250.87,154.77c-.82-3.19-1.04-4.48-1.49-5.68-9.78-26.43-21.34-52.01-36.56-75.8-9.64-15.06-20.26-29.39-35.47-39.44-16.75-11.07-33.97-10.63-50.8-.47-17.96,10.84-27.53,37.31-22.03,58.86,5.05,19.79,18.71,32.07,35.94,41.13,17.89,9.41,37.21,14.5,57.08,16.98,17.27,2.15,34.71,2.93,53.32,4.41ZM287.02,153.27c2.37.18,3.53.41,4.67.32,18.57-1.38,37.27-1.88,55.67-4.47,19.99-2.81,39.29-8.78,56.77-19.49,29.09-17.82,38.51-47.08,24.55-76.35-12.61-26.45-43.54-35.72-67.76-19.31-8.8,5.96-16.61,13.95-23.37,22.24-19.33,23.71-32.22,51.16-43.71,79.29-2.3,5.64-4.37,11.37-6.82,17.77ZM218.14,179.86v75.77h101.58v-75.77h-101.58Z"/>
</svg>